<svg xmlns="http://www.w3.org/2000/svg" width="1600" height="1000" viewBox="0 0 1600 1000">
  <defs>
    <linearGradient id="sea" x1="0" x2="1" y1="0" y2="1">
      <stop offset="0%" stop-color="#0f172a"/>
      <stop offset="100%" stop-color="#1d4ed8"/>
    </linearGradient>
    <linearGradient id="land" x1="0" x2="0" y1="0" y2="1">
      <stop offset="0%" stop-color="#166534"/>
      <stop offset="100%" stop-color="#14532d"/>
    </linearGradient>
  </defs>
  <rect width="1600" height="1000" fill="url(#sea)"/>
  <path d="M0 540 C180 470, 220 420, 370 450 S680 570, 850 500 S1200 430, 1600 520 L1600 1000 L0 1000 Z" fill="url(#land)"/>
  <path d="M100 300 C200 240, 330 210, 430 260 S700 390, 870 330 S1120 250, 1320 310 S1450 380, 1540 360 L1500 520 C1280 470, 1120 470, 980 520 S720 610, 530 560 S220 450, 100 500 Z" fill="rgba(74,222,128,0.18)"/>
  <path d="M200 180 C300 130, 470 160, 570 220" stroke="rgba(255,255,255,0.5)" stroke-width="6" fill="none"/>
  <path d="M1140 660 C1180 560, 1290 520, 1380 600" stroke="rgba(255,255,255,0.5)" stroke-width="6" fill="none"/>
  <text x="800" y="120" text-anchor="middle" font-size="54" font-family="Arial, sans-serif" fill="#f8fafc">The Shattered Frontier</text>
</svg>
